<?xml version="1.0" encoding="utf-8"?>
<!-- Generator: Adobe Illustrator 25.3.1, SVG Export Plug-In . SVG Version: 6.00 Build 0)  -->
<svg version="1.1" id="图层_1" xmlns="http://www.w3.org/2000/svg" xmlns:xlink="http://www.w3.org/1999/xlink" x="0px" y="0px"
	 viewBox="0 0 200 200" style="enable-background:new 0 0 200 200;" xml:space="preserve">
<style type="text/css">
	.st0{fill:#BFBFBF;}
</style>
<path class="st0" d="M167.1,83.4H32.9c-2.5,0-4.8,1.3-6,3.5L0.9,133.7c-0.6,1-0.9,2.2-0.9,3.3v56.1c0,3.8,3.1,6.9,6.9,6.9h186.3
	c3.8,0,6.9-3.1,6.9-6.9v-56.1c0-1.2-0.3-2.3-0.9-3.3L173.1,87C171.9,84.8,169.6,83.4,167.1,83.4L167.1,83.4z M131.5,135.9
	c-3.2,0-6,2.2-6.7,5.4c-2.5,11.4-12.7,20-24.8,20s-22.4-8.6-24.8-20c-0.7-3.1-3.5-5.4-6.7-5.4H23.2c-5.2,0-8.5-5.5-6.1-10l16-30.4
	c1.2-2.3,3.5-3.7,6.1-3.7h121.6c2.5,0,4.9,1.4,6.1,3.7l16,30.4c2.4,4.6-0.9,10-6.1,10H131.5z M160.1,40.9c-0.2-0.4-0.4-0.7-0.6-1.1
	c-1.9-3.2-6.1-4.3-9.3-2.5L126.7,51c-3.3,1.9-4.4,6.2-2.5,9.5c0.2,0.3,0.3,0.6,0.5,0.9c1.9,3.3,6.1,4.5,9.4,2.5l23.6-13.6
	C160.9,48.4,162,44.2,160.1,40.9z M73.3,51L49.8,37.4c-3.3-1.9-7.4-0.8-9.3,2.5c-0.2,0.4-0.4,0.7-0.6,1.1c-1.9,3.3-0.7,7.4,2.5,9.3
	l23.5,13.6c3.3,1.9,7.5,0.8,9.4-2.6c0.2-0.3,0.3-0.6,0.5-0.9C77.7,57.2,76.6,52.9,73.3,51z M100,46.7h0.5c3.8,0.1,6.9-3,6.9-6.9
	V12.7c0-3.8-3-6.8-6.8-6.9h-1.2c-3.8,0-6.8,3.1-6.8,6.9v27.1c0,3.8,3.1,6.9,6.9,6.9C99.5,46.7,100,46.7,100,46.7z"/>
</svg>
