<?xml version="1.0" encoding="utf-8"?>
<!-- Generator: Adobe Illustrator 25.3.1, SVG Export Plug-In . SVG Version: 6.00 Build 0)  -->
<svg version="1.1" id="图层_1" xmlns="http://www.w3.org/2000/svg" xmlns:xlink="http://www.w3.org/1999/xlink" x="0px" y="0px"
	 viewBox="0 0 40 44" style="enable-background:new 0 0 40 44;" xml:space="preserve">
<style type="text/css">
	.st0{fill-rule:evenodd;clip-rule:evenodd;fill:#FFFFFF;}
</style>
<path class="st0" d="M26.8,38.8c-0.2,0-0.3-0.1-0.3-0.3c0.1-0.8,0.2-1.6,0.3-2.3c6.3-2.7,10.7-8.9,10.7-16.1
	c0-9.7-7.8-17.5-17.5-17.5S2.5,10.3,2.5,20c0,7.3,4.4,13.5,10.7,16.1c0.1,0.8,0.2,1.6,0.3,2.3c0,0.2-0.1,0.3-0.3,0.3
	C5.5,36,0,28.6,0,20C0,8.9,9,0,20,0s20,8.9,20,20C40,28.6,34.5,36,26.8,38.8z M24.7,18.4c0,2.6-2.1,4.7-4.7,4.7
	c-2.6,0-4.7-2.1-4.7-4.7c0-2.6,2.1-4.7,4.7-4.7C22.6,13.7,24.7,15.8,24.7,18.4z M20,9.3C14.1,9.3,9.3,14.1,9.3,20
	c0,2.9,1.2,5.6,3.1,7.5c0,0.8,0.1,1.8,0.2,3c0,0.1,0,0.2,0,0.3c-0.1,0.3-0.3,0.4-0.4,0.3C8.7,28.6,6.4,24.6,6.4,20
	c0-7.5,6.1-13.6,13.6-13.6c7.5,0,13.6,6.1,13.6,13.6c0,4.6-2.3,8.6-5.7,11.1c-0.2,0.1-0.4,0-0.4-0.3c0-0.1,0-0.2,0-0.3
	c0.1-1.2,0.2-2.2,0.2-3c1.9-1.9,3.1-4.6,3.1-7.5C30.7,14.1,25.9,9.3,20,9.3z M19.9,25c0,0,3.9-0.2,4.9,2.7c0,0,0.3,0.8,0,4.2
	c-0.3,3.5-0.8,7.1-1.3,9.7c-0.5,2.6-3.2,2.4-3.5,2.5c-0.3-0.1-3,0.1-3.5-2.5s-1-6.2-1.3-9.7c-0.3-3.4,0-4.2,0-4.2
	C16.1,24.8,19.9,25,19.9,25z"/>
</svg>
