<?xml version="1.0" encoding="utf-8"?>
<!-- Generator: Adobe Illustrator 25.3.1, SVG Export Plug-In . SVG Version: 6.00 Build 0)  -->
<svg version="1.1" id="图层_1" xmlns="http://www.w3.org/2000/svg" xmlns:xlink="http://www.w3.org/1999/xlink" x="0px" y="0px"
	 viewBox="0 0 31 17.5" style="enable-background:new 0 0 31 17.5;" xml:space="preserve">
<style type="text/css">
	.st0{fill-rule:evenodd;clip-rule:evenodd;fill:url(#SVGID_1_);}
	.st1{opacity:0.29;fill-rule:evenodd;clip-rule:evenodd;fill:#FFFFFF;enable-background:new    ;}
	.st2{fill:#FFFFFF;}
</style>
<g>
	<g>
		<g>
			
				<linearGradient id="SVGID_1_" gradientUnits="userSpaceOnUse" x1="40.4037" y1="-51.749" x2="40.4037" y2="-35.8273" gradientTransform="matrix(1 0 0 -1 -24.9037 -34.3021)">
				<stop  offset="0" style="stop-color:#07AB02"/>
				<stop  offset="1" style="stop-color:#0BBF20"/>
			</linearGradient>
			<path class="st0" d="M28,0H3C1.3,0,0,1.3,0,3v11.5c0,1.7,1.3,3,3,3h25c1.7,0,3-1.3,3-3V3C31,1.3,29.7,0,28,0z"/>
		</g>
	</g>
	<path class="st1" d="M28,1H3C1.3,1,0,2.3,0,4V3c0-1.7,1.3-3,3-3h25c1.7,0,3,1.3,3,3v1C31,2.3,29.7,1,28,1z"/>
</g>
<g>
	<path class="st2" d="M5.9,7.7L5.3,8.4C4.7,7.8,4,7.1,3.1,6.4l0.7-0.6C4.6,6.4,5.3,7.1,5.9,7.7z M6.3,4.6L5.6,5.3
		C5,4.7,4.3,4,3.3,3.3L4,2.7C4.9,3.3,5.7,4,6.3,4.6z M6.2,9.6c-0.6,1.6-1.3,3.1-2.1,4.6l-0.9-0.4c0.8-1.5,1.5-3,2.1-4.5L6.2,9.6z
		 M10,12.7c-0.9,0.7-2,1.2-3.2,1.7l-0.6-0.7c1.2-0.4,2.3-1,3.2-1.5L10,12.7z M14.7,5.8h-0.9V4.3H7.6v1.5H6.7V3.4h3.4
		C10,3.1,9.9,2.8,9.8,2.5l0.9-0.2c0.1,0.3,0.2,0.7,0.4,1h3.6V5.8z M13.7,5.3v0.8h-2.6v0.9h3v4.7H7.2V7.1h3V6.1H7.6V5.3H13.7z
		 M10.2,9V7.9H8.1V9H10.2z M10.2,9.8H8.1v1.2h2.1V9.8z M11.1,9h2.1V7.9h-2.1V9z M13.2,9.8h-2.1v1.2h2.1V9.8z M15,13.6l-0.5,0.8
		c-1-0.7-2-1.2-3-1.6l0.5-0.7C13.1,12.5,14.1,13,15,13.6z"/>
	<path class="st2" d="M21.5,13.8v0.6h-0.9V9.1c-0.2,0.1-0.3,0.2-0.5,0.3l-0.4-0.7v0.2C19.4,9,19,9.1,18.6,9.3v3.9
		c0,0.7-0.4,1.1-1.1,1.1h-1.1l-0.2-0.9c0.3,0,0.7,0.1,1,0.1c0.3,0,0.5-0.2,0.5-0.5V9.8c-0.5,0.2-1,0.4-1.5,0.6L16,9.4
		c0.6-0.2,1.2-0.4,1.7-0.6v-3h-1.5V5h1.5V2.5h0.9V5h1.1v0.9h-1.1v2.6C19,8.2,19.4,8,19.7,7.8v0.7C21,8,22,7.4,22.6,6.6h-2.5V5.8h1.5
		C21.4,5.4,21.2,5,21,4.7l0.8-0.3c0.2,0.4,0.4,0.9,0.6,1.4h1V3.9C22.5,4,21.5,4,20.4,4l-0.3-0.8c2.8,0,5.1-0.2,6.9-0.7l0.4,0.8
		c-0.9,0.2-2,0.4-3.2,0.5v2h1c0.3-0.5,0.5-1.1,0.8-1.7l0.8,0.3c-0.2,0.5-0.5,1-0.7,1.4h1.6v0.8h-2.6c0.7,0.7,1.7,1.3,3,1.8l-0.4,0.8
		c-1.4-0.7-2.4-1.5-3.3-2.6h-0.2v1.9h-0.8V6.6h-0.1c-0.5,0.9-1.3,1.7-2.4,2.3H27v5.5h-0.9v-0.6H21.5z M21.5,9.7V11h1.9V9.7H21.5z
		 M21.5,11.7V13h1.9v-1.2H21.5z M26.2,11V9.7h-1.9V11H26.2z M26.2,13v-1.2h-1.9V13H26.2z"/>
</g>
</svg>
