<?xml version="1.0" encoding="utf-8"?>
<!-- Generator: Adobe Illustrator 25.2.1, SVG Export Plug-In . SVG Version: 6.00 Build 0)  -->
<svg version="1.1" id="图层_1" xmlns="http://www.w3.org/2000/svg" xmlns:xlink="http://www.w3.org/1999/xlink" x="0px" y="0px"
	 viewBox="0 0 22 22" style="enable-background:new 0 0 22 22;" xml:space="preserve">
<style type="text/css">
	.st0{fill-rule:evenodd;clip-rule:evenodd;fill:#B8BDCC;}
</style>
<path id="搜索icon" class="st0" d="M21.5,21.5c-0.6,0.6-1.5,0.6-2,0l-3.1-3.2c-4.6,3.4-10.9,2.4-14.3-2c-3.4-4.6-2.5-11,2-14.3
	s10.9-2.4,14.3,2c2.7,3.7,2.7,8.6,0,12.3l3.1,3.2C22.2,20,22.2,21,21.5,21.5z M15.5,5.1C12.6,2.2,8,2.2,5.1,5.1s-2.8,7.5,0,10.4
	s7.5,2.8,10.3,0S18.3,7.9,15.5,5.1L15.5,5.1z"/>
</svg>
