<?xml version="1.0" encoding="utf-8"?>
<!-- Generator: Adobe Illustrator 25.3.1, SVG Export Plug-In . SVG Version: 6.00 Build 0)  -->
<svg version="1.1" id="图层_1" xmlns="http://www.w3.org/2000/svg" xmlns:xlink="http://www.w3.org/1999/xlink" x="0px" y="0px"
	 viewBox="0 0 44 17.5" style="enable-background:new 0 0 44 17.5;" xml:space="preserve">
<style type="text/css">
	.st0{fill-rule:evenodd;clip-rule:evenodd;fill:url(#SVGID_1_);}
	.st1{opacity:0.12;fill-rule:evenodd;clip-rule:evenodd;fill:url(#SVGID_2_);enable-background:new    ;}
	.st2{fill:#FFFFFF;}
</style>
<g>
	<g>
		<g>
			
				<linearGradient id="SVGID_1_" gradientUnits="userSpaceOnUse" x1="46.9037" y1="893.639" x2="46.9037" y2="877.7173" gradientTransform="matrix(1 0 0 1 -24.9037 -876.1921)">
				<stop  offset="0" style="stop-color:#852FBF"/>
				<stop  offset="1" style="stop-color:#B755E3"/>
			</linearGradient>
			<path class="st0" d="M41,0H3C1.3,0,0,1.3,0,3v11.5c0,1.7,1.3,3,3,3h38c1.7,0,3-1.3,3-3V3C44,1.3,42.7,0,41,0z"/>
		</g>
	</g>
	<linearGradient id="SVGID_2_" gradientUnits="userSpaceOnUse" x1="0" y1="2" x2="44" y2="2">
		<stop  offset="0" style="stop-color:#FFFFFF"/>
		<stop  offset="1" style="stop-color:#FFFFFF"/>
	</linearGradient>
	<path class="st1" d="M41,1H3C1.3,1,0,2.3,0,4V3c0-1.7,1.3-3,3-3h38c1.7,0,3,1.3,3,3v1C44,2.3,42.7,1,41,1z"/>
</g>
<g>
	<g>
		<path class="st2" d="M5.9,6.5v5.9C6.4,12,6.9,11.6,7.5,11l0.3,1C6.9,12.8,6,13.5,5,14.1l-0.4-0.8C4.9,13.1,5,12.9,5,12.7V7.4H3
			V6.5H5.9z M6.8,4.6L6.2,5.3c-0.6-0.6-1.3-1.3-2.3-2l0.7-0.6C5.5,3.3,6.2,3.9,6.8,4.6z M15.1,3.2v0.9h-2.8v9.1
			c0,0.8-0.4,1.2-1.2,1.2H9.4l-0.2-0.9c0.6,0,1.1,0.1,1.6,0.1c0.4,0,0.6-0.2,0.6-0.6V4.1H7.5V3.2H15.1z"/>
		<path class="st2" d="M17.7,4.6v10h-0.9v-10H17.7z M20.2,4.4l-0.8,0.4c-0.4-0.8-0.9-1.5-1.5-2.1l0.9-0.4C19.3,3,19.8,3.7,20.2,4.4z
			 M24.5,5.1c-0.3,0.7-0.6,1.4-1,2h1.4v3.6h-1.4v1.9c0,0.2,0.1,0.3,0.3,0.3h0.5c0.2,0,0.3-0.1,0.4-0.2c0.1-0.1,0.2-0.5,0.2-1.2
			l0.8,0.3c-0.1,0.9-0.2,1.5-0.4,1.7c-0.2,0.2-0.5,0.3-0.9,0.3h-1c-0.6,0-0.9-0.3-0.9-1v-2.1h-1c-0.2,1.5-1.1,2.7-2.7,3.4l-0.5-0.8
			c1.5-0.5,2.3-1.4,2.4-2.6h-1.3V7h3.1c0.4-0.7,0.7-1.5,1-2.3L24.5,5.1z M21.8,6.5L21,6.9c-0.3-0.6-0.7-1.2-1.1-1.6l0.8-0.4
			C21.1,5.4,21.4,5.9,21.8,6.5z M24,7.8h-3.7v2H24V7.8z M25.5,14.5l-0.2-0.9l0.9,0c0.3,0,0.5-0.2,0.5-0.6V4h-5.2V3.1h6.1v10.2
			c0,0.8-0.4,1.2-1.2,1.2H25.5z"/>
		<path class="st2" d="M35.9,2.4v2.4h4.7V11h-1v-0.8h-3.8v4.5h-1v-4.5h-3.8V11h-1V4.8h4.7V2.4H35.9z M34.9,9.2V5.7h-3.8v3.5H34.9z
			 M39.7,9.2V5.7h-3.8v3.5H39.7z"/>
	</g>
</g>
</svg>
