<?xml version="1.0" encoding="utf-8"?>
<!-- Generator: Adobe Illustrator 25.3.1, SVG Export Plug-In . SVG Version: 6.00 Build 0)  -->
<svg version="1.1" id="图层_1" xmlns="http://www.w3.org/2000/svg" xmlns:xlink="http://www.w3.org/1999/xlink" x="0px" y="0px"
	 viewBox="0 0 100 40" style="enable-background:new 0 0 100 40;" xml:space="preserve">
<style type="text/css">
	.st0{fill:#FFFFFF;}
	.st1{fill-rule:evenodd;clip-rule:evenodd;}
</style>
<path class="st0" d="M93.1,40H6.9C3.1,40,0,36.9,0,33.1V6.9C0,3.1,3.1,0,6.9,0h86.2c3.8,0,6.9,3.1,6.9,6.9v26.2
	C100,36.9,96.9,40,93.1,40z"/>
<path class="st1" d="M80.5,22.7h-4.3v7.4h-4.1V9.9h8.4c6.2,0,7.4,3.5,7.4,6.4C88,19.2,86.7,22.7,80.5,22.7z M76.3,19h4.1
	c1.2,0,2.2-0.2,2.8-0.7c0.5-0.4,0.8-1.1,0.8-2.1c0-1-0.3-1.7-0.8-2.1c-0.6-0.4-1.5-0.7-2.7-0.7h-4.1V19z M62.7,30.5
	c-2.4,0-4.3-1-5.6-3c-1.2-1.9-1.9-4.4-1.9-7.5s0.6-5.6,1.9-7.5c1.3-2,3.2-3,5.6-3c2.4,0,4.3,1,5.6,3l0,0c1.2,1.9,1.9,4.4,1.9,7.5
	s-0.6,5.6-1.9,7.5C67,29.5,65.1,30.5,62.7,30.5z M65.4,15.4c-0.6-1.5-1.4-2.2-2.8-2.2c-1.3,0-2.2,0.7-2.8,2.2l0,0
	c-0.4,1.1-0.6,2.6-0.6,4.6c0,1.9,0.2,3.5,0.6,4.6c0.5,1.5,1.4,2.2,2.8,2.2c1.3,0,2.2-0.7,2.8-2.2c0.4-1.1,0.6-2.7,0.6-4.6
	C66.1,18,65.8,16.5,65.4,15.4z M54.3,24.2c0,1.8-0.7,3.4-2,4.6c-1.4,1.1-3.3,1.7-5.6,1.7c-2.4,0-4.3-0.6-5.6-1.7
	c-1.4-1.2-2.1-2.7-2.1-4.6c0-1.3,0.4-2.5,1.2-3.5c0.5-0.6,1-1.1,1.5-1.4c-0.6-0.4-1-0.8-1.4-1.4c-0.5-0.8-0.7-1.7-0.7-2.8
	c0-1.6,0.6-3,1.8-4c1.3-1.2,3-1.8,5.2-1.8c2.2,0,3.9,0.6,5.2,1.8l0,0c1.2,1.1,1.8,2.4,1.8,4c0,1.1-0.2,2-0.7,2.7
	c-0.4,0.5-0.8,1-1.4,1.4c0.6,0.3,1.1,0.8,1.6,1.4C53.9,21.8,54.3,22.9,54.3,24.2z M49,13.8c-0.6-0.5-1.4-0.8-2.4-0.8
	c-1,0-1.8,0.3-2.4,0.8l0,0c-0.5,0.5-0.7,1-0.7,1.6c0,0.8,0.2,1.3,0.6,1.8c0.5,0.5,1.3,0.8,2.5,0.8s2-0.3,2.5-0.8
	c0.4-0.4,0.6-1,0.6-1.8C49.7,14.7,49.4,14.2,49,13.8z M49.3,22.1c-0.6-0.6-1.5-0.9-2.8-0.9c-1.2,0-2.1,0.3-2.7,0.8l0,0
	c-0.6,0.5-0.9,1.2-0.9,2.1c0,0.8,0.3,1.5,0.9,2c0.6,0.5,1.5,0.8,2.7,0.8c1.1,0,2.1-0.3,2.8-0.8c0.6-0.5,0.8-1.1,0.8-1.9
	C50.2,23.4,49.9,22.7,49.3,22.1z M30.5,30.5c-2.4,0-4.3-1-5.6-3C23.6,25.6,23,23.1,23,20c0-3.1,0.6-5.6,1.9-7.5c1.3-2,3.2-3,5.6-3
	c2.4,0,4.3,1,5.6,3l0,0c1.2,1.9,1.9,4.4,1.9,7.5c0,3.1-0.6,5.6-1.9,7.5C34.8,29.5,32.9,30.5,30.5,30.5z M33.2,15.4
	c-0.6-1.5-1.4-2.2-2.8-2.2c-1.3,0-2.2,0.7-2.8,2.2l0,0c-0.4,1.1-0.6,2.6-0.6,4.6c0,1.9,0.2,3.5,0.6,4.6c0.5,1.5,1.4,2.2,2.8,2.2
	c1.3,0,2.2-0.7,2.8-2.2c0.4-1.1,0.6-2.7,0.6-4.6C33.8,18,33.6,16.5,33.2,15.4z M16.4,15.2c-1.1,0.8-2.3,1.4-3.7,1.8L12,17.2V13
	l0.4-0.1c0.8-0.2,1.7-0.6,2.6-1.1c0.9-0.6,1.7-1.2,2.3-1.8l0.1-0.2h3.1v20.2h-4.1V15.2z"/>
</svg>
