<?xml version="1.0" encoding="utf-8"?>
<!-- Generator: Adobe Illustrator 25.3.1, SVG Export Plug-In . SVG Version: 6.00 Build 0)  -->
<svg version="1.1" id="图层_1" xmlns="http://www.w3.org/2000/svg" xmlns:xlink="http://www.w3.org/1999/xlink" x="0px" y="0px"
	 viewBox="0 0 90 40" style="enable-background:new 0 0 90 40;" xml:space="preserve">
<style type="text/css">
	.st0{fill:#FFFFFF;}
	.st1{fill-rule:evenodd;clip-rule:evenodd;}
</style>
<path class="st0" d="M83.1,40H6.9C3.1,40,0,36.9,0,33.1V6.9C0,3.1,3.1,0,6.9,0h76.2C86.9,0,90,3.1,90,6.9v26.2
	C90,36.9,86.9,40,83.1,40z"/>
<path class="st1" d="M52.2,30.6c-2.4,0-4.3-1-5.7-3c-1.2-1.9-1.9-4.4-1.9-7.5c0-3.1,0.6-5.6,1.9-7.5c1.3-2,3.2-3,5.7-3
	c2.4,0,4.3,1,5.7,3l0,0c1.2,1.9,1.9,4.4,1.9,7.5c0,3.1-0.6,5.6-1.9,7.5C56.6,29.5,54.6,30.6,52.2,30.6z M55,15.4
	c-0.6-1.5-1.5-2.2-2.8-2.2c-1.3,0-2.2,0.7-2.8,2.2l0,0c-0.4,1.1-0.6,2.7-0.6,4.6c0,1.9,0.2,3.5,0.6,4.6c0.5,1.5,1.5,2.2,2.8,2.2
	c1.3,0,2.2-0.7,2.8-2.2c0.4-1.1,0.6-2.7,0.6-4.6C55.6,18.1,55.4,16.5,55,15.4z M16.5,23.5c0,1.1,0.4,2,1,2.5
	c0.6,0.5,1.4,0.8,2.3,0.8c1.1,0,1.9-0.3,2.5-0.9c0.5-0.5,0.8-1.2,0.8-1.9c0-0.9-0.3-1.6-0.8-2c-0.5-0.5-1.4-0.7-2.5-0.7H18v-3.4h1.9
	c1,0,1.8-0.2,2.3-0.6c0.4-0.4,0.7-1,0.7-1.8c0-0.8-0.2-1.4-0.6-1.8c-0.5-0.4-1.2-0.6-2.2-0.6c-1,0-1.8,0.2-2.3,0.7
	c-0.6,0.5-0.9,1.2-1,2.3l0,0.5h-4.1l0-0.5c0.2-2.1,1-3.7,2.3-4.9c1.3-1.1,3-1.7,5-1.7c2.1,0,3.8,0.5,5,1.5l0,0
	c1.3,1,1.9,2.5,1.9,4.3c0,1.9-0.8,3.3-2.4,4.2c0.7,0.3,1.3,0.8,1.7,1.3c0.7,0.8,1.1,1.9,1.1,3.1c0,1.9-0.7,3.5-2,4.8
	c-1.4,1.3-3.2,1.9-5.4,1.9c-2.1,0-3.9-0.6-5.2-1.7c-1.4-1.2-2.3-3-2.4-5.3l0-0.5h4.2L16.5,23.5z M35.4,20.6c1.4-1,2.2-1.7,2.6-2.1
	c0.7-0.8,1.1-1.8,1.1-2.7c0-0.9-0.2-1.6-0.7-2c-0.5-0.4-1.2-0.6-2.2-0.6c-1,0-1.8,0.3-2.3,1c-0.5,0.7-0.8,1.7-0.9,3.2l0,0.5h-4.1
	l0-0.5c0-2.3,0.7-4.2,2-5.6c1.4-1.5,3.2-2.3,5.4-2.3c2,0,3.6,0.6,5,1.8l0,0c1.3,1.2,1.9,2.7,1.9,4.6c0,1.8-0.7,3.4-2,4.9
	c-0.8,0.8-2,1.8-4.1,3.2c-1.4,0.9-2.4,1.8-3,2.5h9.1v3.8H28.8v-0.5c0-2.1,0.7-3.9,2-5.5C31.6,23.4,33.1,22.1,35.4,20.6z M77.7,16.3
	c0,3-1.3,6.5-7.6,6.5h-4.3v7.4h-4.2V9.9h8.5C76.4,9.9,77.7,13.3,77.7,16.3z M70,19.1c1.2,0,2.2-0.2,2.8-0.7c0.5-0.4,0.8-1.1,0.8-2.1
	c0-1-0.3-1.7-0.8-2.1c-0.6-0.4-1.5-0.7-2.8-0.7h-4.1v5.5H70z"/>
</svg>
