<?xml version="1.0" encoding="utf-8"?>
<!-- Generator: Adobe Illustrator 25.3.1, SVG Export Plug-In . SVG Version: 6.00 Build 0)  -->
<svg version="1.1" id="图层_1" xmlns="http://www.w3.org/2000/svg" xmlns:xlink="http://www.w3.org/1999/xlink" x="0px" y="0px"
	 viewBox="0 0 90 40" style="enable-background:new 0 0 90 40;" xml:space="preserve">
<style type="text/css">
	.st0{fill:#FFFFFF;}
	.st1{fill-rule:evenodd;clip-rule:evenodd;}
</style>
<path class="st0" d="M83.1,40H6.9C3.1,40,0,36.9,0,33.1V6.9C0,3.1,3.1,0,6.9,0h76.2C86.9,0,90,3.1,90,6.9v26.2
	C90,36.9,86.9,40,83.1,40z"/>
<path class="st1" d="M70.4,22.7h-4.3v7.4H62V9.8h8.5c6.2,0,7.5,3.5,7.5,6.4C78,19.2,76.7,22.7,70.4,22.7z M73,14.2
	c-0.6-0.4-1.5-0.7-2.8-0.7h-4.1V19h4.1c1.2,0,2.2-0.2,2.8-0.7c0.5-0.4,0.8-1.1,0.8-2.1C73.8,15.3,73.5,14.6,73,14.2z M52.5,30.5
	c-2.4,0-4.3-1-5.7-3C45.6,25.6,45,23.1,45,20c0-3.1,0.6-5.6,1.9-7.5c1.3-2,3.2-3,5.7-3c2.4,0,4.3,1,5.7,3l0,0
	c1.2,1.9,1.9,4.4,1.9,7.5c0,3.1-0.6,5.6-1.9,7.5C56.8,29.5,54.9,30.5,52.5,30.5z M55.3,15.4c-0.6-1.5-1.5-2.2-2.8-2.2
	c-1.3,0-2.2,0.7-2.8,2.2l0,0c-0.4,1.1-0.6,2.7-0.6,4.6c0,1.9,0.2,3.5,0.6,4.6c0.5,1.5,1.5,2.2,2.8,2.2c1.3,0,2.2-0.7,2.8-2.2
	c0.4-1.1,0.6-2.7,0.6-4.6C55.9,18,55.7,16.5,55.3,15.4z M42.8,20.8c0.8,1,1.2,2.2,1.2,3.5c0,1.8-0.7,3.4-2.1,4.6
	c-1.4,1.1-3.3,1.7-5.7,1.7c-2.4,0-4.3-0.6-5.7-1.7c-1.4-1.2-2.1-2.7-2.1-4.6c0-1.3,0.4-2.5,1.2-3.5c0.5-0.6,1-1.1,1.6-1.4
	c-0.6-0.4-1-0.8-1.4-1.4c-0.5-0.8-0.7-1.7-0.7-2.8c0-1.6,0.6-3,1.8-4c1.3-1.2,3.1-1.8,5.3-1.8c2.2,0,4,0.6,5.3,1.8l0,0
	c1.2,1.1,1.8,2.4,1.8,4c0,1.1-0.2,2-0.7,2.8c-0.4,0.5-0.9,1-1.4,1.4C41.8,19.7,42.4,20.2,42.8,20.8z M38.7,13.8
	c-0.6-0.5-1.4-0.8-2.4-0.8c-1,0-1.8,0.3-2.4,0.8l0,0c-0.5,0.5-0.7,1-0.7,1.6c0,0.8,0.2,1.3,0.6,1.8c0.5,0.5,1.4,0.8,2.5,0.8
	c1.2,0,2-0.3,2.5-0.8c0.4-0.4,0.6-1,0.6-1.8C39.4,14.7,39.2,14.2,38.7,13.8z M39.1,22.2c-0.6-0.6-1.5-0.9-2.8-0.9
	c-1.2,0-2.1,0.3-2.7,0.8l0,0c-0.6,0.5-0.9,1.2-0.9,2.1c0,0.8,0.3,1.5,0.9,2c0.6,0.5,1.5,0.8,2.7,0.8c1.2,0,2.1-0.3,2.8-0.8
	c0.6-0.5,0.8-1.1,0.8-1.9C39.9,23.4,39.6,22.7,39.1,22.2z M25.3,30.2h-4V26H12v-3.7l9.7-12.5h3.6v12.7h2.9V26h-2.9V30.2z M21.3,15.7
	l-5.2,6.8h5.2V15.7z"/>
</svg>
