<?xml version="1.0" encoding="utf-8"?>
<!-- Generator: Adobe Illustrator 25.3.1, SVG Export Plug-In . SVG Version: 6.00 Build 0)  -->
<svg version="1.1" id="图层_1" xmlns="http://www.w3.org/2000/svg" xmlns:xlink="http://www.w3.org/1999/xlink" x="0px" y="0px"
	 viewBox="0 0 66 40" style="enable-background:new 0 0 66 40;" xml:space="preserve">
<style type="text/css">
	.st0{fill:#FFFFFF;}
	.st1{fill-rule:evenodd;clip-rule:evenodd;}
</style>
<path class="st0" d="M59.1,40H6.9C3.1,40,0,36.9,0,33.1V6.9C0,3.1,3.1,0,6.9,0h52.2C62.9,0,66,3.1,66,6.9v26.2
	C66,36.9,62.9,40,59.1,40z"/>
<path class="st1" d="M51.5,30h-5.7l-7.5-8.6l-1.8,1.8V30h-4.2V10h4.2v8.3l8.3-8.3h5.5l-9.1,8.7L51.5,30z M28,30h-4v-4.1h-9.4v-3.6
	L24.3,10H28v12.5h2.9v3.5H28V30z M23.9,15.8l-5.3,6.7h5.3V15.8z"/>
</svg>
