<?xml version="1.0" encoding="utf-8"?>
<!-- Generator: Adobe Illustrator 25.3.1, SVG Export Plug-In . SVG Version: 6.00 Build 0)  -->
<svg version="1.1" id="图层_1" xmlns="http://www.w3.org/2000/svg" xmlns:xlink="http://www.w3.org/1999/xlink" x="0px" y="0px"
	 viewBox="0 0 90 40" style="enable-background:new 0 0 90 40;" xml:space="preserve">
<style type="text/css">
	.st0{fill:#FFFFFF;}
	.st1{fill-rule:evenodd;clip-rule:evenodd;}
</style>
<path class="st0" d="M83.1,40H6.9C3.1,40,0,36.9,0,33.1V6.9C0,3.1,3.1,0,6.9,0h76.2C86.9,0,90,3.1,90,6.9v26.2
	C90,36.9,86.9,40,83.1,40z"/>
<path class="st1" d="M69.5,22.8h-4.3v7.4h-4.1V9.9h8.4c6.2,0,7.4,3.5,7.4,6.4C77,19.2,75.7,22.8,69.5,22.8z M65.3,19.1h4.1
	c1.2,0,2.2-0.2,2.8-0.7c0.5-0.4,0.8-1.1,0.8-2.1c0-1-0.3-1.7-0.8-2.1c-0.6-0.4-1.5-0.7-2.7-0.7h-4.1V19.1z M51.7,30.5
	c-2.4,0-4.3-1-5.6-3c-1.2-1.9-1.9-4.4-1.9-7.5c0-3.1,0.6-5.6,1.9-7.5c1.3-2,3.2-3,5.6-3c2.4,0,4.3,1,5.6,3l0,0
	c1.2,1.9,1.9,4.4,1.9,7.5c0,3.1-0.6,5.6-1.9,7.5C56,29.5,54.1,30.5,51.7,30.5z M54.4,15.4c-0.6-1.5-1.4-2.2-2.8-2.2
	c-1.3,0-2.2,0.7-2.8,2.2l0,0c-0.4,1.1-0.6,2.6-0.6,4.6c0,1.9,0.2,3.5,0.6,4.6c0.5,1.5,1.4,2.2,2.8,2.2c1.3,0,2.2-0.7,2.8-2.2
	c0.4-1.1,0.6-2.7,0.6-4.6C55.1,18.1,54.8,16.5,54.4,15.4z M28.4,29.6c0-2.1,0.7-3.9,2-5.5c0.7-0.8,2.2-2.1,4.5-3.6
	c1.4-1,2.2-1.7,2.6-2.1c0.7-0.8,1.1-1.8,1.1-2.7c0-0.9-0.2-1.6-0.7-2c-0.5-0.4-1.2-0.6-2.2-0.6c-1,0-1.8,0.3-2.3,1
	c-0.5,0.7-0.8,1.7-0.9,3.1l0,0.5h-4.1l0-0.5c0-2.3,0.7-4.1,2-5.5c1.3-1.5,3.2-2.3,5.4-2.3c2,0,3.6,0.6,4.9,1.7l0,0
	c1.3,1.2,1.9,2.7,1.9,4.5c0,1.8-0.7,3.4-2,4.9c-0.7,0.8-2,1.8-4.1,3.2c-1.4,0.9-2.4,1.8-3,2.5h9.1v3.8H28.4V29.6z M20.1,30.1h-4.4
	l6.9-16.4H13V9.9h14l0,3.2L20.1,30.1z"/>
</svg>
