<?xml version="1.0" encoding="utf-8"?>
<!-- Generator: Adobe Illustrator 25.3.1, SVG Export Plug-In . SVG Version: 6.00 Build 0)  -->
<svg version="1.1" id="图层_1" xmlns="http://www.w3.org/2000/svg" xmlns:xlink="http://www.w3.org/1999/xlink" x="0px" y="0px"
	 viewBox="0 0 66 40" style="enable-background:new 0 0 66 40;" xml:space="preserve">
<style type="text/css">
	.st0{fill:#FFFFFF;}
	.st1{fill-rule:evenodd;clip-rule:evenodd;}
</style>
<path class="st0" d="M59.1,40H6.9C3.1,40,0,36.9,0,33.1V6.9C0,3.1,3.1,0,6.9,0h52.2C62.9,0,66,3.1,66,6.9v26.2
	C66,36.9,62.9,40,59.1,40z"/>
<path class="st1" d="M51,30.1h-5.6l-7.4-8.7l-1.8,1.8v6.9h-4.1V9.9h4.1v8.4l8.2-8.4h5.4l-9,8.8L51,30.1z M30.4,24.2
	c0,1.8-0.7,3.4-2,4.6c-1.4,1.1-3.3,1.7-5.6,1.7c-2.4,0-4.3-0.6-5.6-1.7c-1.4-1.2-2.1-2.7-2.1-4.6c0-1.3,0.4-2.5,1.2-3.5
	c0.5-0.6,1-1.1,1.5-1.4c-0.6-0.4-1-0.8-1.4-1.4c-0.5-0.8-0.7-1.7-0.7-2.8c0-1.6,0.6-3,1.8-4c1.3-1.2,3-1.8,5.2-1.8
	c2.2,0,3.9,0.6,5.2,1.8l0,0c1.2,1.1,1.8,2.4,1.8,4c0,1.1-0.2,2-0.7,2.7c-0.4,0.5-0.8,1-1.4,1.4c0.6,0.3,1.1,0.8,1.6,1.4
	C30,21.8,30.4,23,30.4,24.2z M25.1,13.8c-0.6-0.5-1.4-0.8-2.4-0.8c-1,0-1.8,0.3-2.4,0.8l0,0c-0.5,0.5-0.7,1-0.7,1.6
	c0,0.8,0.2,1.3,0.6,1.8c0.5,0.5,1.3,0.8,2.5,0.8s2-0.3,2.5-0.8c0.4-0.4,0.6-1,0.6-1.8C25.8,14.8,25.6,14.3,25.1,13.8z M25.4,22.2
	c-0.6-0.6-1.5-0.9-2.8-0.9c-1.2,0-2.1,0.3-2.7,0.8l0,0c-0.6,0.5-0.9,1.2-0.9,2.1c0,0.8,0.3,1.5,0.9,2c0.6,0.5,1.5,0.8,2.7,0.8
	c1.1,0,2.1-0.3,2.8-0.8c0.6-0.5,0.8-1.1,0.8-1.9C26.3,23.4,26,22.7,25.4,22.2z"/>
</svg>
