<?xml version="1.0" encoding="utf-8"?>
<!-- Generator: Adobe Illustrator 25.3.1, SVG Export Plug-In . SVG Version: 6.00 Build 0)  -->
<svg version="1.1" id="图层_1" xmlns="http://www.w3.org/2000/svg" xmlns:xlink="http://www.w3.org/1999/xlink" x="0px" y="0px"
	 viewBox="0 0 130 40" style="enable-background:new 0 0 130 40;" xml:space="preserve">
<style type="text/css">
	.st0{fill:#FFFFFF;}
	.st1{fill-rule:evenodd;clip-rule:evenodd;}
</style>
<path class="st0" d="M123.1,39.9H6.9C3.1,39.9,0,36.8,0,33V6.8C0,3,3.1-0.1,6.9-0.1h116.2c3.8,0,6.9,3.1,6.9,6.9V33
	C130,36.8,126.9,39.9,123.1,39.9z"/>
<path class="st1" d="M117,23.4l-1.3,2.7l-0.1,0c-2.2-0.8-4-1.7-5.5-2.8v8.9H107V21.8h1.2c-0.8-0.7-1.4-1.4-1.9-2.1h-3.6
	c-0.6,0.8-1.3,1.5-2,2.1h1.7v0.2c0,2.1-0.3,4-1,5.5c-0.7,1.9-2.6,3.5-5.4,4.8l-0.1,0l-2-2.4l0.2-0.1c2.2-0.9,3.7-2.1,4.4-3.4
	c0.5-0.9,0.7-2.1,0.8-3.5c-1.6,1.1-3.5,2.1-5.6,3l-0.1,0l-1.6-2.7l0.2-0.1c3.1-0.9,5.5-2.1,7.1-3.5H95V8.4h19v11.3h-4.3
	c1.7,1.5,4.1,2.7,7.1,3.7L117,23.4z M102.9,12.8v-1.6h-5v1.6H102.9z M97.9,15.3v1.7h5v-1.7H97.9z M105.9,15.3v1.7h5.1v-1.7H105.9z
	 M105.9,11.1v1.6h5.1v-1.6H105.9z M89.7,31c-0.5,0.4-1.2,0.6-2.1,0.6H85c-1.7,0-2.6-0.9-2.6-2.8v-2.8c-0.2,0.4-0.4,0.8-0.5,1.1
	c-1.3,2.2-3.4,3.9-6.3,5.1l-0.1,0l-1.7-2.7l0.2-0.1c2.7-1.2,4.6-2.7,5.5-4.5c0.9-1.9,1.5-4.5,1.6-7.5v-5.1H84v5.1
	c-0.1,2-0.3,3.9-0.7,5.5h2v5.1c0,0.5,0.2,0.6,0.5,0.6h1.3c0.1,0,0.3,0,0.4-0.3c0.1-0.2,0.2-0.7,0.3-2.5l0-0.2l2.9,0.9l0,0.1
	C90.5,29.2,90.1,30.6,89.7,31z M85.6,11.4h-6v12.2h-3V8.4h12.2v15.1h-3.1V11.4z M74.4,24.1c-0.7-0.7-1.3-1.4-2-2v10h-3v-9.7
	c-0.8,0.8-1.7,1.5-2.5,2.2l-0.2,0.1l-1-3.2l0.1-0.1c3.1-2.6,5.3-5.2,6.5-7.7h-6v-2.9h3.5c-0.4-1-0.8-1.8-1.2-2.6l-0.1-0.2l2.9-0.8
	l0.1,0.1c0.6,1.4,1,2.5,1.3,3.4h2.7l0,2.5c-0.6,1.8-1.6,3.6-2.9,5.4c1.3,0.8,2.5,1.7,3.6,2.7l0.1,0.1l-1.7,2.6L74.4,24.1z
	 M55.8,28.5h3.7c0.3,0,0.6-0.2,0.9-0.5c0.3-0.3,0.5-1.8,0.6-4.3l0-0.2l2.9,1l0,0.1c-0.3,3.4-0.7,5.2-1.3,5.8c-0.6,0.6-1.4,0.9-2.4,1
	H55c-2.1,0-3.1-1.1-3.1-3.3V7.9H55v7.6c2.3-0.7,4.4-1.5,6.5-2.6l0.1-0.1l1.8,2.5l-0.2,0.1c-2.9,1.3-5.7,2.3-8.3,3.1v9.1
	C55,28.2,55.3,28.5,55.8,28.5z M50.5,26.3l0.1,0l0.8,2.9l-0.1,0c-3,0.9-6.3,1.8-9.9,2.5l-0.1,0L40.4,29l0.1-0.1
	c0.5-0.3,0.7-0.8,0.7-1.5V8h3.1v6.8h6.5v3h-6.5v10.3C46.2,27.6,48.3,27,50.5,26.3z M22,28.3h6.5V18.1h-5.3l0-2.8H20v0.8
	c1,1,2.1,2.2,3.4,3.7l0.1,0.1l-1.8,2.6l-0.1-0.2c-0.5-0.9-1-1.8-1.6-2.8V32h-3V21.3c-0.7,1.8-1.6,3.5-2.5,4.9l-0.2,0.2L13,23.1
	l0.1-0.1c1.7-2.2,3-4.8,3.8-7.6h-3.3v-2.9H17V7.6h3v4.8h3.3l0,2.7h5.2V7.8h3.1v7.4h5.5v3h-5.5v10.1h6.1v3H22V28.3z"/>
</svg>
