<?xml version="1.0" encoding="utf-8"?>
<!-- Generator: Adobe Illustrator 25.3.1, SVG Export Plug-In . SVG Version: 6.00 Build 0)  -->
<svg version="1.1" id="图层_1" xmlns="http://www.w3.org/2000/svg" xmlns:xlink="http://www.w3.org/1999/xlink" x="0px" y="0px"
	 viewBox="0 0 86 40" style="enable-background:new 0 0 86 40;" xml:space="preserve">
<style type="text/css">
	.st0{fill:#FFFFFF;}
	.st1{fill-rule:evenodd;clip-rule:evenodd;}
</style>
<path class="st0" d="M79.1,40H6.9C3.1,40,0,36.9,0,33.1V6.9C0,3.1,3.1,0,6.9,0h72.2C82.9,0,86,3.1,86,6.9v26.2
	C86,36.9,82.9,40,79.1,40z"/>
<path class="st1" d="M69.7,26.7c0.1,1,0.4,1.9,1,2.5l0.8,0.8h-4.8l-0.1-0.2c-0.5-0.7-0.8-1.5-0.9-2.7l-0.2-2.3
	c-0.1-0.9-0.4-1.5-0.8-1.9c-0.5-0.4-1.2-0.6-2.2-0.6h-4.5V30h-4.2V10h9.1c2.1,0,3.8,0.5,5,1.4c1.3,1.1,2,2.6,2,4.5
	c0,1.1-0.3,2.1-0.9,2.9c-0.4,0.6-0.9,1.1-1.6,1.4c1.2,0.6,1.8,1.7,2,3.3L69.7,26.7z M57.9,18.6h4.5c1.1,0,2-0.2,2.5-0.7
	c0.5-0.4,0.7-1,0.7-1.9c0-0.9-0.2-1.5-0.7-1.8c-0.5-0.4-1.3-0.6-2.5-0.6h-4.5V18.6z M41.9,30h-7.5V10h7.5c3.2,0,5.7,0.9,7.5,2.7
	c1.6,1.7,2.5,4.1,2.5,7.3c0,3.1-0.8,5.6-2.5,7.3C47.6,29.1,45.1,30,41.9,30z M46.2,15.1c-1-1-2.6-1.5-4.9-1.5h-2.8v12.7h2.8
	c2.2,0,3.9-0.5,4.9-1.5c1-1,1.5-2.6,1.5-4.8C47.7,17.7,47.2,16.1,46.2,15.1z M27.4,21.6h-8.8V30h-4.2V10h4.2v7.9h8.8V10h4.2v20h-4.2
	V21.6z"/>
</svg>
