<?xml version="1.0" encoding="utf-8"?>
<!-- Generator: Adobe Illustrator 25.3.1, SVG Export Plug-In . SVG Version: 6.00 Build 0)  -->
<svg version="1.1" id="图层_1" xmlns="http://www.w3.org/2000/svg" xmlns:xlink="http://www.w3.org/1999/xlink" x="0px" y="0px"
	 viewBox="0 0 86 40" style="enable-background:new 0 0 86 40;" xml:space="preserve">
<style type="text/css">
	.st0{fill:#FFFFFF;}
	.st1{fill-rule:evenodd;clip-rule:evenodd;}
</style>
<path class="st0" d="M79.1,40H6.9C3.1,40,0,36.9,0,33.1V6.9C0,3.1,3.1,0,6.9,0h72.2C82.9,0,86,3.1,86,6.9v26.2
	C86,36.9,82.9,40,79.1,40z"/>
<path class="st1" d="M69.2,26.8c0.1,1.1,0.4,1.9,1,2.5l0.8,0.8h-4.8L66,29.9c-0.5-0.7-0.8-1.6-0.9-2.8l-0.2-2.4
	c-0.1-0.9-0.4-1.6-0.8-1.9c-0.5-0.4-1.2-0.6-2.2-0.6h-4.5v7.8h-4.2V9.9h9.1c2.1,0,3.8,0.5,5,1.4c1.3,1.1,2,2.6,2,4.6
	c0,1.1-0.3,2.1-0.9,3c-0.4,0.6-0.9,1.1-1.6,1.4c1.2,0.6,1.8,1.8,2,3.4L69.2,26.8z M57.4,18.6h4.5c1.1,0,2-0.2,2.5-0.7
	c0.5-0.4,0.7-1,0.7-1.9c0-0.9-0.2-1.5-0.7-1.9c-0.5-0.4-1.3-0.6-2.5-0.6h-4.5V18.6z M41.3,30.1h-7.6V9.9h7.6c3.2,0,5.8,0.9,7.5,2.7
	c1.6,1.7,2.5,4.2,2.5,7.4c0,3.2-0.8,5.6-2.5,7.4C47.1,29.2,44.5,30.1,41.3,30.1z M45.6,15.1c-1-1-2.7-1.5-4.9-1.5h-2.8v12.9h2.8
	c2.2,0,3.9-0.5,4.9-1.5c1-1,1.5-2.7,1.5-4.9C47.1,17.7,46.6,16.1,45.6,15.1z M24.1,17.9c2.5,0.8,4.3,1.4,5.2,1.9
	c1.8,1.1,2.8,2.6,2.8,4.6c0,1.9-0.8,3.4-2.2,4.5c-1.5,1.1-3.5,1.6-6,1.6c-2.5,0-4.5-0.5-5.9-1.5c-1.8-1.2-2.7-3.2-2.9-5.7l0-0.5h4.1
	l0.1,0.4c0.2,1.3,0.7,2.3,1.4,2.8c0.7,0.5,1.8,0.7,3.2,0.7c1.3,0,2.4-0.2,3.1-0.6c0.7-0.4,1-0.9,1-1.5c0-0.8-0.5-1.5-1.5-2
	c-0.1-0.1-0.8-0.4-3.7-1.2c-2.5-0.8-3.9-1.3-4.5-1.7c-1.6-1-2.5-2.4-2.5-4.3c0-1.9,0.8-3.4,2.4-4.4c1.4-1,3.2-1.5,5.4-1.5
	c2.4,0,4.3,0.5,5.6,1.5c1.5,1.1,2.3,2.8,2.5,5l0,0.5h-4.1l-0.1-0.4c-0.2-1-0.7-1.8-1.3-2.3c-0.6-0.5-1.6-0.7-2.9-0.7
	c-1.2,0-2,0.1-2.5,0.5c-0.6,0.3-0.9,0.8-0.9,1.6c0,0.6,0.4,1.1,1.1,1.5C21.1,16.9,21.7,17.2,24.1,17.9z"/>
</svg>
