<?xml version="1.0" encoding="utf-8"?>
<!-- Generator: Adobe Illustrator 25.3.1, SVG Export Plug-In . SVG Version: 6.00 Build 0)  -->
<svg version="1.1" id="图层_1" xmlns="http://www.w3.org/2000/svg" xmlns:xlink="http://www.w3.org/1999/xlink" x="0px" y="0px"
	 viewBox="0 0 42 61" style="enable-background:new 0 0 42 61;" xml:space="preserve">
<style type="text/css">
	.st0{fill-rule:evenodd;clip-rule:evenodd;fill:url(#SVGID_1_);}
</style>
<linearGradient id="SVGID_1_" gradientUnits="userSpaceOnUse" x1="3.4975" y1="59.6224" x2="36.4028" y2="4.8587">
	<stop  offset="0" style="stop-color:#51FABB"/>
	<stop  offset="0.1862" style="stop-color:#49E7C7"/>
	<stop  offset="1" style="stop-color:#2699FC"/>
</linearGradient>
<path class="st0" d="M8,0h26c4.4,0,8,3.6,8,8v45c0,4.4-3.6,8-8,8H8c-4.4,0-8-3.6-8-8V8C0,3.6,3.6,0,8,0z"/>
<g>
	<path d="M22,5.4c3.3,3.6,7,6.4,11.3,8.4l-1.4,2.5C27.6,14.3,24,11.5,21,8c-2.7,3.2-6.3,6.1-10.8,8.4l-1.4-2.6
		c4.5-2.2,8.3-5,11.3-8.4H22z M30.4,18v2.1c-1.6,4.2-4.9,7.4-10.1,9.5l-1.8-2.4c4.2-1.6,7-3.8,8.7-6.7H11.7V18H30.4z M25,15.4
		l-1.5,2.3c-2-1.5-4-2.7-6.1-3.5l1.5-2.2C21.1,12.9,23.2,14,25,15.4z"/>
	<path d="M19.1,40.4c0.3-1.6,0.4-3.2,0.6-5.1h-9v-2.6h20.7v2.6h-8.9c-0.2,1.9-0.3,3.6-0.6,5.1h10.3V43h-9.1c1.8,4.5,5.1,8,10,10.5
		l-1.7,2.2c-5-2.7-8.4-6.5-10.3-11.4c-0.4,1.3-0.9,2.4-1.4,3.4c-1.7,3.1-4.7,5.8-8.9,8.1L9,53.5c3.8-1.9,6.5-4.3,8.1-6.9
		c0.6-1,1-2.2,1.4-3.6H9.9v-2.6H19.1z"/>
</g>
</svg>
