<?xml version="1.0" encoding="utf-8"?>
<!-- Generator: Adobe Illustrator 25.3.1, SVG Export Plug-In . SVG Version: 6.00 Build 0)  -->
<svg version="1.1" id="图层_1" xmlns="http://www.w3.org/2000/svg" xmlns:xlink="http://www.w3.org/1999/xlink" x="0px" y="0px"
	 viewBox="0 0 56 17.5" style="enable-background:new 0 0 56 17.5;" xml:space="preserve">
<style type="text/css">
	.st0{fill-rule:evenodd;clip-rule:evenodd;fill:url(#SVGID_1_);}
	.st1{opacity:0.29;fill-rule:evenodd;clip-rule:evenodd;fill:#FFFFFF;}
	.st2{fill:#FFFFFF;}
</style>
<g>
	<g>
		<g>
			
				<linearGradient id="SVGID_1_" gradientUnits="userSpaceOnUse" x1="52.9037" y1="69.639" x2="52.9037" y2="53.7173" gradientTransform="matrix(1 0 0 1 -24.9037 -52.1921)">
				<stop  offset="0" style="stop-color:#07AB02"/>
				<stop  offset="1" style="stop-color:#0BBF20"/>
			</linearGradient>
			<path class="st0" d="M53,0H3C1.3,0,0,1.3,0,3v11.5c0,1.7,1.3,3,3,3h50c1.7,0,3-1.3,3-3V3C56,1.3,54.7,0,53,0z"/>
		</g>
	</g>
	<path class="st1" d="M53,1H3C1.3,1,0,2.3,0,4V3c0-1.7,1.3-3,3-3h50c1.7,0,3,1.3,3,3v1C56,2.3,54.7,1,53,1z"/>
</g>
<g>
	<g>
		<g>
			<path class="st2" d="M9.2,7.2H7.9v1.3H4.6v1.1h6.2l-3.5,3.7H9l3.5-3.7V8.4H9.2V7.2z M10.9,5.8c-0.4-0.2-0.7-0.5-1-0.7
				C9.6,4.8,9.3,4.5,9.2,4.2H7.9C7.8,4.5,7.5,4.8,7.2,5c-0.3,0.3-0.6,0.5-1,0.7C5.9,6,5.5,6.2,5.1,6.4C4.8,6.5,4.4,6.7,4.1,6.7v1.2
				c0.4,0,0.8-0.1,1.2-0.3c0.4-0.1,0.8-0.3,1.2-0.5c0.4-0.2,0.8-0.4,1.2-0.7C8,6.2,8.3,5.9,8.6,5.6c0.3,0.3,0.6,0.6,0.9,0.8
				c0.4,0.3,0.7,0.5,1.2,0.7c0.4,0.2,0.8,0.4,1.2,0.5c0.4,0.1,0.8,0.2,1.2,0.3V6.7c-0.3-0.1-0.7-0.2-1.1-0.4
				C11.6,6.2,11.2,6,10.9,5.8z M14.4,13.2h7.8V4.6h-7.8V13.2z M15.6,5.8h5.3v2.5h-5.3V5.8z M15.6,9.5h5.3V12h-5.3V9.5z M25.4,11.9
				c-0.1-0.1-0.1-0.2-0.1-0.3V9.4h6.4V4.6h-7.9v1.2h6.6v2.6h-5.2V6.7H24v5.2c0,0.2,0,0.3,0.1,0.5c0.1,0.2,0.2,0.3,0.3,0.4
				c0.1,0.1,0.2,0.2,0.4,0.3c0.2,0.1,0.3,0.1,0.5,0.1h6.8V12h-6.4C25.6,12,25.5,12,25.4,11.9z M33.4,5.5H37V6h-3.2v4.3h3
				c-0.2,0.4-0.5,0.8-0.8,1c-0.4-0.2-0.6-0.5-0.8-0.8h-1.5c0.1,0.3,0.3,0.6,0.5,0.8c0.2,0.2,0.4,0.4,0.6,0.6
				c-0.4,0.1-0.9,0.2-1.3,0.2v1.1c0.5,0,1,0,1.4-0.1c0.4-0.1,0.9-0.2,1.2-0.4c0.4,0.1,0.7,0.2,1.2,0.3c0.4,0.1,0.9,0.1,1.4,0.2
				c0.5,0,1,0.1,1.6,0.1c0.6,0,1.1,0,1.7,0v-1.2c-0.4,0-0.8,0-1.2,0c-0.4,0-0.8,0-1.2,0c-0.4,0-0.8,0-1.2-0.1
				c-0.4,0-0.8-0.1-1.1-0.2c0.4-0.5,0.7-1,0.9-1.6h3.4V6h-3.2V5.5H42V4.3h-8.6V5.5z M37,9.1h-2V8.7h2V9.1z M37,7.6h-2V7.1h2V7.6z
				 M38.3,7.1h2v0.5h-2V7.1z M38.3,8.7h2v0.5h-2V8.7z M47.3,4.8h-1.6V4.2h-1.2v0.6h-1.6v1.1h4.5V4.8z M47.1,11h-1
				c0,0.4,0.1,0.8,0.1,1.1c0,0.4,0.1,0.7,0.1,1.1h1c0-0.4,0-0.8-0.1-1.2C47.2,11.8,47.1,11.4,47.1,11z M43.2,11
				c0,0.4-0.1,0.8-0.1,1.1c0,0.4-0.1,0.7-0.2,1.1h1c0.1-0.4,0.1-0.7,0.1-1.1c0-0.4,0.1-0.8,0.1-1.2H43.2z M49.2,7.2V5.8h1.2
				c0.3,0,0.5,0,0.8-0.1c0.2,0,0.5-0.1,0.6-0.2V4.4c-0.1,0.1-0.3,0.1-0.4,0.1c-0.1,0-0.2,0.1-0.3,0.1c-0.1,0-0.2,0-0.3,0
				c-0.1,0-0.3,0-0.4,0h-2.4V10c0,0.4,0,0.7-0.1,1c-0.1,0.3-0.2,0.6-0.4,0.8v1.5c0.3-0.1,0.6-0.3,0.8-0.5c0.2-0.2,0.4-0.5,0.5-0.7
				c0.1-0.3,0.2-0.6,0.3-0.9c0.1-0.3,0.1-0.7,0.1-1.1V8.4h0.9v4.9h1.2V8.4h0.6V7.2H49.2z M47,6.2h-1.2l-0.2,1.1h-0.9l-0.2-1.1h-1.2
				l0.2,1.1h-0.7v1.1h1.7v0.9h-1.6v1.1h1.6v1.6c0,0,0,0.1-0.1,0.1c0,0-0.1,0.1-0.1,0.1h-0.1v1h0.7c0.2,0,0.4-0.1,0.6-0.2
				c0.2-0.2,0.2-0.4,0.2-0.6v-2h1.6V9.3h-1.6V8.4h1.7V7.3h-0.7L47,6.2z"/>
		</g>
	</g>
</g>
</svg>
